<?xml version="1.0" encoding="UTF-8" standalone="no"?>
<!-- Created with Inkscape (http://www.inkscape.org/) -->

<svg
   width="1669.8575"
   height="407.92654"
   viewBox="0 0 1669.8575 407.92654"
   version="1.1"
   id="svg5"
   sodipodi:docname="logo.svg"
   inkscape:version="1.1.1 (3bf5ae0d25, 2021-09-20)"
   xmlns:inkscape="http://www.inkscape.org/namespaces/inkscape"
   xmlns:sodipodi="http://sodipodi.sourceforge.net/DTD/sodipodi-0.dtd"
   xmlns="http://www.w3.org/2000/svg"
   xmlns:svg="http://www.w3.org/2000/svg">
  <sodipodi:namedview
     id="namedview7"
     pagecolor="#ffffff"
     bordercolor="#cccccc"
     borderopacity="1"
     inkscape:pageshadow="0"
     inkscape:pageopacity="1"
     inkscape:pagecheckerboard="0"
     inkscape:document-units="px"
     showgrid="false"
     inkscape:snap-page="true"
     inkscape:zoom="1.1825658"
     inkscape:cx="203.79416"
     inkscape:cy="189.84145"
     inkscape:window-width="1920"
     inkscape:window-height="1009"
     inkscape:window-x="-8"
     inkscape:window-y="-8"
     inkscape:window-maximized="1"
     inkscape:current-layer="layer1"
     inkscape:snap-intersection-paths="true"
     inkscape:snap-midpoints="false"
     inkscape:object-nodes="true" />
  <defs
     id="defs2">
    <inkscape:path-effect
       effect="spiro"
       id="path-effect21430"
       is_visible="true"
       lpeversion="1" />
    <inkscape:path-effect
       effect="simplify"
       id="path-effect21428"
       is_visible="true"
       lpeversion="1"
       steps="1"
       threshold="0.0093627"
       smooth_angles="360"
       helper_size="0"
       simplify_individual_paths="false"
       simplify_just_coalesce="false" />
    <inkscape:path-effect
       effect="spiro"
       id="path-effect20733"
       is_visible="true"
       lpeversion="1" />
    <inkscape:path-effect
       effect="simplify"
       id="path-effect20731"
       is_visible="true"
       lpeversion="1"
       steps="1"
       threshold="0.0093627"
       smooth_angles="360"
       helper_size="0"
       simplify_individual_paths="false"
       simplify_just_coalesce="false" />
    <inkscape:path-effect
       effect="spiro"
       id="path-effect20596"
       is_visible="true"
       lpeversion="1" />
    <inkscape:path-effect
       effect="simplify"
       id="path-effect20594"
       is_visible="true"
       lpeversion="1"
       steps="1"
       threshold="0.0093627"
       smooth_angles="360"
       helper_size="0"
       simplify_individual_paths="false"
       simplify_just_coalesce="false" />
    <inkscape:path-effect
       effect="simplify"
       id="path-effect20588"
       is_visible="true"
       lpeversion="1"
       steps="1"
       threshold="0.0093627"
       smooth_angles="360"
       helper_size="0"
       simplify_individual_paths="false"
       simplify_just_coalesce="false" />
    <inkscape:path-effect
       effect="spiro"
       id="path-effect19486"
       is_visible="true"
       lpeversion="1" />
    <inkscape:path-effect
       effect="simplify"
       id="path-effect19484"
       is_visible="true"
       lpeversion="1"
       steps="1"
       threshold="0.0093627"
       smooth_angles="360"
       helper_size="0"
       simplify_individual_paths="false"
       simplify_just_coalesce="false" />
    <inkscape:path-effect
       effect="spiro"
       id="path-effect19480"
       is_visible="true"
       lpeversion="1" />
    <inkscape:path-effect
       effect="simplify"
       id="path-effect19478"
       is_visible="true"
       lpeversion="1"
       steps="1"
       threshold="0.0093627"
       smooth_angles="360"
       helper_size="0"
       simplify_individual_paths="false"
       simplify_just_coalesce="false" />
    <inkscape:path-effect
       effect="spiro"
       id="path-effect19474"
       is_visible="true"
       lpeversion="1" />
    <inkscape:path-effect
       effect="simplify"
       id="path-effect19472"
       is_visible="true"
       lpeversion="1"
       steps="1"
       threshold="0.0093627"
       smooth_angles="360"
       helper_size="0"
       simplify_individual_paths="false"
       simplify_just_coalesce="false" />
    <inkscape:path-effect
       effect="spiro"
       id="path-effect18829"
       is_visible="true"
       lpeversion="1" />
    <inkscape:path-effect
       effect="simplify"
       id="path-effect18827"
       is_visible="true"
       lpeversion="1"
       steps="1"
       threshold="0.0093627"
       smooth_angles="360"
       helper_size="0"
       simplify_individual_paths="false"
       simplify_just_coalesce="false" />
    <inkscape:path-effect
       effect="spiro"
       id="path-effect18823"
       is_visible="true"
       lpeversion="1" />
    <inkscape:path-effect
       effect="simplify"
       id="path-effect18821"
       is_visible="true"
       lpeversion="1"
       steps="1"
       threshold="0.0093627"
       smooth_angles="360"
       helper_size="0"
       simplify_individual_paths="false"
       simplify_just_coalesce="false" />
    <inkscape:path-effect
       effect="spiro"
       id="path-effect18817"
       is_visible="true"
       lpeversion="1" />
    <inkscape:path-effect
       effect="simplify"
       id="path-effect18815"
       is_visible="true"
       lpeversion="1"
       steps="1"
       threshold="0.0093627"
       smooth_angles="360"
       helper_size="0"
       simplify_individual_paths="false"
       simplify_just_coalesce="false" />
    <inkscape:path-effect
       effect="spiro"
       id="path-effect18811"
       is_visible="true"
       lpeversion="1" />
    <inkscape:path-effect
       effect="simplify"
       id="path-effect18809"
       is_visible="true"
       lpeversion="1"
       steps="1"
       threshold="0.0093627"
       smooth_angles="360"
       helper_size="0"
       simplify_individual_paths="false"
       simplify_just_coalesce="false" />
    <inkscape:path-effect
       effect="simplify"
       id="path-effect18803"
       is_visible="true"
       lpeversion="1"
       steps="1"
       threshold="0.0093627"
       smooth_angles="360"
       helper_size="0"
       simplify_individual_paths="false"
       simplify_just_coalesce="false" />
    <inkscape:path-effect
       effect="spiro"
       id="path-effect18473"
       is_visible="true"
       lpeversion="1" />
    <inkscape:path-effect
       effect="simplify"
       id="path-effect18471"
       is_visible="true"
       lpeversion="1"
       steps="1"
       threshold="0.0093627"
       smooth_angles="360"
       helper_size="0"
       simplify_individual_paths="false"
       simplify_just_coalesce="false" />
    <inkscape:path-effect
       effect="spiro"
       id="path-effect18467"
       is_visible="true"
       lpeversion="1" />
    <inkscape:path-effect
       effect="simplify"
       id="path-effect18465"
       is_visible="true"
       lpeversion="1"
       steps="1"
       threshold="0.0093627"
       smooth_angles="360"
       helper_size="0"
       simplify_individual_paths="false"
       simplify_just_coalesce="false" />
    <inkscape:path-effect
       effect="spiro"
       id="path-effect18461"
       is_visible="true"
       lpeversion="1" />
    <inkscape:path-effect
       effect="simplify"
       id="path-effect18459"
       is_visible="true"
       lpeversion="1"
       steps="1"
       threshold="0.0093627"
       smooth_angles="360"
       helper_size="0"
       simplify_individual_paths="false"
       simplify_just_coalesce="false" />
    <inkscape:path-effect
       effect="spiro"
       id="path-effect18455"
       is_visible="true"
       lpeversion="1" />
    <inkscape:path-effect
       effect="simplify"
       id="path-effect18453"
       is_visible="true"
       lpeversion="1"
       steps="1"
       threshold="0.0093627"
       smooth_angles="360"
       helper_size="0"
       simplify_individual_paths="false"
       simplify_just_coalesce="false" />
  </defs>
  <g
     inkscape:label="Layer 1"
     inkscape:groupmode="layer"
     id="layer1"
     transform="translate(579.70457,-53.361034)">
    <path
       id="path21815"
       style="color:#000000;fill:#3d3846;stroke-width:18.666;stroke-linecap:round;-inkscape-stroke:none"
       d="m -426.27148,399.00195 c 25.63411,0 51.26822,0 76.90234,0 0,-1.33333 0,-2.66666 0,-4 -25.63412,0 -51.26823,0 -76.90234,0 0,1.33334 0,2.66667 0,4 z" />
    <path
       id="path21817"
       style="color:#000000;fill:#3d3846;stroke-width:1.47221;stroke-linecap:round;-inkscape-stroke:none"
       d="m -426.42969,385.67578 c -6.56346,-0.0806 -12.15705,6.38984 -11.05134,12.87742 0.66052,5.83336 6.39083,10.31391 12.1994,9.77099 25.63072,-0.0116 51.26548,0.0736 76.8937,-0.0437 6.77556,-0.39159 11.95973,-7.71473 9.95248,-14.24317 -1.34837,-5.58602 -7.26566,-9.07277 -12.82874,-8.36709 -25.05509,0.003 -50.11082,-0.008 -75.1655,0.006 z" />
    <path
       id="path3225"
       style="font-size:322.904px;line-height:1.66;font-family:'Source Han Code JP';-inkscape-font-specification:'Source Han Code JP';text-align:center;letter-spacing:1.07635px;word-spacing:0px;text-anchor:middle;fill:#3d3846;stroke-width:6.6631"
       d="m -461.91211,331.46875 h 34.0625 V 227.52539 h 95.94922 v -29.58594 h -95.94922 v -74.35937 h 113.2207 V 94.314453 h -147.2832 c 0,79.051437 0,158.102867 0,237.154297 z"
       sodipodi:nodetypes="ccccccccccc" />
    <path
       id="path3227"
       style="font-size:322.904px;line-height:1.66;font-family:'Source Han Code JP';-inkscape-font-specification:'Source Han Code JP';text-align:center;letter-spacing:1.07635px;word-spacing:0px;text-anchor:middle;fill:#3d3846;stroke-width:6.6631"
       d="m -180.66992,150.57422 c -17.79261,0.3185 -35.33092,4.78248 -51.65742,11.7148 -9.41108,3.96445 -18.43056,8.81427 -27.075,14.24223 4.49009,7.98148 8.98049,15.9628 13.46875,23.94531 3.3565,-2.03631 6.72492,-4.05463 10.16406,-5.94922 0.81809,-0.44575 1.81942,-1.00042 2.65575,-1.43606 8.44457,-4.49166 17.26569,-8.34889 26.48487,-10.94675 0.40178,-0.11194 1.05917,-0.29584 1.51783,-0.41183 11.08563,-2.95091 22.86069,-3.82117 34.14093,-1.44826 12.49743,2.1426 23.47438,11.56122 27.3382,23.65944 0.85749,2.58542 1.20074,5.29973 1.885,7.93131 0.37333,2.00342 0.98085,4.10684 0.44573,6.13232 -0.33011,1.05058 -1.67645,0.8773 -2.53624,0.79803 -0.90711,-0.23653 -1.82023,-0.22581 -2.74128,-0.0741 -21.73906,2.17716 -43.61713,4.54297 -64.66733,10.65613 -8.78623,2.56281 -17.42057,5.73568 -25.6097,9.83923 -9.43027,4.93213 -17.89924,12.12032 -23.29335,21.3829 -3.08746,5.23412 -4.98464,11.15156 -5.53755,17.20179 -2.37259,15.89572 3.75337,32.89377 16.03969,43.33136 3.51881,2.99746 7.53169,5.36133 11.64938,7.4333 10.56357,5.1264 22.42595,7.22559 34.11512,7.02399 15.31099,-0.39539 30.21762,-5.24619 43.69233,-12.33502 7.88348,-4.13798 15.35279,-9.03471 22.45773,-14.39211 0.0741,1.82458 -0.13436,3.68837 0.37261,5.46666 0.54776,5.70967 1.09462,11.41943 1.64301,17.12904 9.48177,0 18.96354,0 28.44532,0 -0.10326,-38.07241 0.20176,-76.14656 -0.16915,-114.21769 -0.47883,-13.18887 -3.95181,-26.41861 -10.92518,-37.69042 -5.29759,-8.59477 -12.859,-15.87713 -21.95443,-20.34372 -12.41481,-6.32615 -26.49147,-8.87068 -40.34968,-8.6427 z m 37.30273,91.13672 c 0.80376,0.0455 1.65681,0.1225 2.34961,0.57031 0,13.71615 0,27.43229 0,41.14844 -10.16811,8.38408 -21.31028,15.87131 -33.76248,20.3963 -7.95493,2.91197 -16.44969,4.42396 -24.92938,4.10518 -7.79116,-0.27103 -15.75647,-1.81082 -22.51126,-5.86672 -4.68789,-2.81401 -8.50886,-7.23073 -10.08205,-12.51777 -2.95427,-9.31256 0.44698,-20.0401 7.74806,-26.4002 2.70513,-2.33717 5.89405,-4.01889 9.02672,-5.7023 6.36413,-3.28737 13.15272,-5.68969 20.06508,-7.53207 1.11114,-0.29449 2.47638,-0.64079 3.69044,-0.9292 4.78201,-1.13244 9.651,-2.05339 14.44157,-2.82265 5.68813,-0.93295 11.28768,-1.67411 17.0174,-2.46497 1.29084,-0.10115 2.60492,0.0278 3.89746,-0.17381 4.28944,-0.45077 8.47507,-1.76631 12.80582,-1.81491 0.081,0.001 0.16201,0.003 0.24301,0.004 z" />
    <path
       id="path2442"
       style="font-size:322.904px;line-height:1.66;font-family:'Source Han Code JP';-inkscape-font-specification:'Source Han Code JP';text-align:center;letter-spacing:1.07635px;word-spacing:0px;text-anchor:middle;fill:#3d3846;stroke-width:6.6631"
       d="m -41.763672,156.76172 c 0,8.66211 0,17.32422 0,25.98633 34.0481772,0 68.096354,0 102.144531,0 -38.419439,43.43019 -76.837528,86.86157 -115.257812,130.29101 0,6.14323 0,12.28646 0,18.42969 55.81054675,0 111.621094,0 167.431643,0 0,-9.32878 0,-18.65755 0,-27.98633 -39.695966,0 -79.39193,0 -119.0878931,0 C 31.990188,260.05269 70.513948,216.62329 109.03711,173.19336 c 0,-6.14388 0,-12.28776 0,-18.43164 -50.266928,0 -100.5338548,0 -150.800782,0 0,0.66667 0,1.33333 0,2 z" />
    <path
       id="path3231"
       style="font-size:322.904px;line-height:1.66;font-family:'Source Han Code JP';-inkscape-font-specification:'Source Han Code JP';text-align:center;letter-spacing:1.07635px;word-spacing:0px;text-anchor:middle;fill:#3d3846;stroke-width:6.6631"
       d="m 212.28906,101.29297 c -1.23763,17.84635 -2.47526,35.69271 -3.71289,53.53906 -16.67382,0.64198 -33.34767,1.28354 -50.02148,1.92578 0,8.66341 0,17.32683 0,25.99024 16.31705,0 32.63411,0 48.95117,0 0.30547,31.81628 -0.80341,63.65699 0.75427,95.453 1.12391,12.05793 4.98696,24.00023 11.96333,33.96359 5.5475,7.95639 13.35855,14.46471 22.52666,17.78797 10.54791,4.29594 22.04174,5.66094 33.35965,5.67457 19.07589,0.14924 38.01992,-3.95561 55.77807,-10.77941 0.92697,-0.0344 0.38545,-0.81595 0.27411,-1.37864 -2.27461,-8.14551 -4.55226,-16.29018 -6.82601,-24.43593 -10.45998,3.90872 -21.29563,7.00779 -32.42656,8.19786 -11.39265,1.2468 -23.20083,0.40622 -33.93282,-3.82676 -2.66709,-0.91835 -4.92465,-2.70354 -6.97206,-4.59785 -5.39409,-5.13817 -8.36041,-12.30599 -9.79421,-19.50414 -1.16228,-5.69387 -1.36816,-11.53463 -1.16954,-17.32766 -0.35496,-26.40774 -0.005,-52.81788 -0.12278,-79.2266 28.14323,0 56.28646,0 84.42969,0 0,-9.32878 0,-18.65756 0,-27.98633 -28.14519,0 -56.29037,0 -84.43555,0 0,-18.44336 0,-36.88672 0,-55.330079 -9.4974,0 -18.99479,0 -28.49219,0 -0.0436,0.620439 -0.0872,1.240889 -0.13086,1.861329 z" />
    <path
       id="path3233"
       style="font-size:322.904px;line-height:1.66;font-family:'Source Han Code JP';-inkscape-font-specification:'Source Han Code JP';text-align:center;letter-spacing:1.07635px;word-spacing:0px;text-anchor:middle;fill:#3d3846;stroke-width:6.6631"
       d="m 366.41602,157.60352 c 26.63867,57.41666 53.27734,114.83333 79.91601,172.25 -4.04507,10.19465 -8.11275,20.56937 -14.67914,29.45597 -3.29859,4.46347 -7.29645,8.45503 -11.99078,11.44442 -0.28093,0.16964 -0.91191,0.56873 -1.33265,0.80807 -3.17314,1.76632 -6.45495,3.42424 -9.99598,4.314 -2.98706,0.79312 -6.06969,1.18574 -9.15379,1.32324 -0.58822,0.0272 -1.51504,0.0481 -2.23242,0.0508 -6.01317,0.0296 -11.97793,-0.92279 -17.83985,-2.19141 -2.40942,8.79625 -4.82214,17.5916 -7.22851,26.38868 4.27371,1.53546 8.67799,2.71915 13.179,3.35265 5.52655,0.79644 11.12819,0.98886 16.7047,0.84927 20.17562,-0.78269 39.66783,-10.95959 52.1188,-26.80773 2.9861,-3.84379 5.62918,-7.94828 8.07838,-12.15147 9.00006,-15.62996 14.26329,-32.987 21.48748,-49.43413 22.07312,-54.16501 44.14741,-108.32987 66.22265,-162.49414 -10.82812,0 -21.65625,0 -32.48437,0 -16.06272,41.20794 -32.656,82.2316 -48.02824,123.71547 -2.51323,6.7317 -4.92556,13.5034 -7.40723,20.24567 -0.20074,0.82567 -0.4639,-0.28807 -0.65594,-0.55253 -1.68636,-3.7384 -2.52954,-7.72137 -4.26406,-11.45549 -0.49284,-0.91392 -1.09108,-1.75378 -1.40487,-2.75659 -17.94134,-43.44818 -37.60305,-86.16347 -56.46623,-129.19653 -11.28711,0 -22.57421,0 -33.86132,0 0.43945,0.94726 0.8789,1.89453 1.31836,2.8418 z" />
    <path
       id="path3235"
       style="font-size:322.904px;line-height:1.66;font-family:'Source Han Code JP';-inkscape-font-specification:'Source Han Code JP';text-align:center;letter-spacing:1.07635px;word-spacing:0px;text-anchor:middle;fill:#3d3846;stroke-width:6.6631"
       d="m 684.83008,150.57812 c -9.09435,0.14621 -18.1615,1.95473 -26.58857,5.38505 -11.58971,4.23108 -21.84041,11.35319 -31.42179,18.99601 -0.57699,0.74936 -0.45115,-0.33417 -0.5587,-0.75039 -0.43041,-3.19123 -0.46523,-6.44696 -1.11848,-9.60034 -0.54631,-1.85698 -0.11491,-3.83747 -0.41212,-5.73643 -0.12941,-1.80865 -1.22953,-3.73648 -3.13494,-4.08393 -1.16531,-0.24471 -2.35005,0.0811 -3.52985,-0.0264 -7.36368,0 -14.72735,0 -22.09102,0 0,83.10286 0,166.20573 0,249.30859 11.14518,0 22.29036,0 33.43555,0 -0.26048,-27.93101 0.73689,-55.90225 -1.17383,-83.79492 0.1372,-1.80424 -0.24437,-3.594 -0.3711,-5.38867 11.30842,9.6048 24.9221,16.72361 39.54884,19.53539 10.15955,1.96356 20.80859,1.61863 30.72372,-1.42225 13.35689,-3.39067 25.47061,-10.95916 34.93446,-20.90877 13.06219,-13.69991 21.47701,-31.63954 24.11125,-50.35367 2.57924,-17.39422 2.52808,-35.33944 -1.59239,-52.49549 -2.79226,-11.55457 -7.48501,-22.73273 -14.38459,-32.44744 -7.56399,-10.46217 -18.67303,-18.09187 -30.83967,-22.2255 -8.19093,-2.81323 -16.88209,-4.12678 -25.53677,-3.99087 z m -5.98438,28.58008 c 3.81745,-0.0401 7.61142,0.50856 11.32917,1.33904 8.54572,1.59645 16.18157,6.69111 21.60797,13.39466 5.18452,6.29416 8.5707,13.97023 10.09205,21.96114 2.29251,10.91479 3.27412,22.1434 2.44738,33.27977 -0.0883,1.11951 -0.21387,2.48737 -0.34571,3.6211 -0.55096,4.82646 -1.47724,9.61296 -2.83203,14.27929 -0.234,0.7672 -0.54367,1.81318 -0.83783,2.68012 -2.56208,7.67232 -6.33529,15.01031 -11.53089,21.23768 -9.26054,10.87747 -23.8231,17.11016 -38.10036,15.90714 -11.9674,-0.90517 -23.35112,-5.77502 -33.1454,-12.5582 -2.82757,-1.96227 -5.54693,-4.08167 -8.13161,-6.35463 0,-27.9987 0,-55.99739 0,-83.99609 2.29241,-2.38276 4.70898,-4.64443 7.21679,-6.79883 0.34643,-0.28272 0.97216,-0.81293 1.42555,-1.19043 6.19132,-5.07014 13.00864,-9.44295 20.42211,-12.49902 0.53942,-0.22583 1.49509,-0.60319 2.0354,-0.79781 5.86,-2.18551 12.08033,-3.48751 18.34741,-3.50493 z" />
    <path
       id="path3237"
       style="font-size:322.904px;line-height:1.66;font-family:'Source Han Code JP';-inkscape-font-specification:'Source Han Code JP';text-align:center;letter-spacing:1.07635px;word-spacing:0px;text-anchor:middle;fill:#3d3846;stroke-width:6.6631"
       d="m 890.78711,150.59961 c -10.23047,0.2159 -20.46135,1.87801 -30.15816,5.1733 -24.40241,8.41755 -44.66816,28.17897 -53.41906,52.4963 -2.96188,8.37238 -4.70311,17.15651 -5.46372,25.99659 -1.55161,18.78299 1.67067,38.15907 10.47138,54.91953 4.62648,8.8562 10.90837,16.83028 18.41382,23.42473 12.72898,11.26301 28.86279,18.2626 45.50916,21.2498 9.90392,1.80338 20.04407,2.15474 30.07274,1.4109 20.97546,-1.64546 41.38865,-9.05121 58.79377,-20.82484 0.51709,-0.33458 1.28796,-0.60513 0.61714,-1.23946 -4.04352,-7.47662 -8.08722,-14.95316 -12.13199,-22.42912 -3.36451,2.25516 -6.66513,4.3649 -10.27884,6.25471 -11.34333,5.99412 -23.89951,9.73383 -36.69968,10.72772 -0.43803,0.0243 -1.18529,0.0859 -1.64136,0.10996 -5.84178,0.34089 -11.71987,0.087 -17.50512,-0.79942 -0.76203,-0.12477 -1.8256,-0.29992 -2.69727,-0.46679 -1.1386,-0.2252 -2.28884,-0.46325 -3.32368,-0.71234 -2.90101,-0.68045 -5.75648,-1.54936 -8.55522,-2.57087 -0.32899,-0.12459 -1.09041,-0.40653 -1.43566,-0.54898 -1.01682,-0.40281 -1.88161,-0.75516 -2.91492,-1.21914 -1.4557,-0.63743 -2.89049,-1.32322 -4.28224,-2.09125 -0.41399,-0.22563 -1.13392,-0.63851 -1.65429,-0.95117 -0.75161,-0.45945 -1.33373,-0.8218 -2.09084,-1.33349 -9.56364,-6.43114 -16.66803,-16.1308 -20.7783,-26.83058 -0.1609,-0.41413 -0.36856,-0.97182 -0.53692,-1.45135 -1.78775,-4.9843 -2.9496,-10.19231 -3.45918,-15.46271 45.06445,0 90.12891,0 135.19336,0 1.11476,-7.54632 1.71019,-15.17799 1.51018,-22.80872 -0.36489,-14.50731 -3.41157,-29.1512 -10.3293,-42.00046 -5.14706,-9.63529 -12.57049,-18.06682 -21.61329,-24.2167 -12.08051,-8.30162 -26.58896,-12.63185 -41.13929,-13.599 -2.81971,-0.19039 -5.64731,-0.25785 -8.47322,-0.20715 z m 4.70703,27.3457 c 11.45685,0.35979 22.96564,4.65977 31.23242,12.72071 3.27137,3.16611 5.88713,6.9604 7.86537,11.05166 3.95476,7.7554 5.90674,16.38077 6.72643,25.00498 -34.95833,0 -69.91667,0 -104.875,0 0.69006,-3.98444 1.77322,-7.89936 3.21289,-11.67774 0.28874,-0.76056 0.7012,-1.77477 1.07136,-2.62188 5.12895,-11.85318 13.9976,-22.29203 25.52022,-28.3145 5.47734,-2.85641 11.48565,-4.62688 17.5811,-5.54836 3.85995,-0.5817 7.76882,-0.66436 11.66521,-0.61487 z" />
  </g>
</svg>
